/* XPM */
static char * crunchyfrog_xpm[] = {
"32 32 83 1",
" 	c None",
".	c #000000",
"+	c #4D4D4D",
"@	c #DDDDDD",
"#	c #5E5E5E",
"$	c #FFFFFF",
"%	c #010101",
"&	c #1A1A1A",
"*	c #B8B8B8",
"=	c #F4F4F4",
"-	c #7A7A7A",
";	c #1F1F1F",
">	c #C3C3C3",
",	c #828282",
"'	c #000100",
")	c #030D00",
"!	c #051700",
"~	c #031000",
"{	c #010500",
"]	c #010400",
"^	c #051800",
"/	c #104D00",
"(	c #187900",
"_	c #1C8A00",
":	c #1B8700",
"<	c #125B00",
"[	c #092C00",
"}	c #020A00",
"|	c #0B3500",
"1	c #177300",
"2	c #1B8400",
"3	c #104E00",
"4	c #030E00",
"5	c #161616",
"6	c #ACACAC",
"7	c #E8E8E8",
"8	c #737373",
"9	c #010700",
"0	c #0D4100",
"a	c #177200",
"b	c #030F00",
"c	c #092E00",
"d	c #1A8000",
"e	c #115100",
"f	c #020B00",
"g	c #1A7D00",
"h	c #1B8600",
"i	c #0A3200",
"j	c #093000",
"k	c #156700",
"l	c #125700",
"m	c #020C00",
"n	c #146100",
"o	c #061D00",
"p	c #072400",
"q	c #061C00",
"r	c #010300",
"s	c #105000",
"t	c #1B8500",
"u	c #156500",
"v	c #177000",
"w	c #092A00",
"x	c #1A7E00",
"y	c #020800",
"z	c #000200",
"A	c #092D00",
"B	c #1A7F00",
"C	c #135B00",
"D	c #177400",
"E	c #1C8800",
"F	c #0E4500",
"G	c #010600",
"H	c #0B3700",
"I	c #125800",
"J	c #166A00",
"K	c #166C00",
"L	c #146300",
"M	c #0E4400",
"N	c #010800",
"O	c #041100",
"P	c #041400",
"Q	c #041200",
"R	c #020D00",
"                                ",
"    ...........                 ",
"    +@@@@@@@@@.                 ",
"    #$$$$$$$$$.                 ",
"    #$$$$$$$$$.............     ",
"    #$$$$$$$$$.           .     ",
"    #$$$$$$$$$.           .     ",
"    #$$$$$$$$$.           .     ",
"    ...........           .     ",
"                    %.......... ",
"                    &*========- ",
"                    ;>$$$$$$$$, ",
"                    ;>$$$$$$$$, ",
"      '')!~{'       ;>$$$$$$$$, ",
"    ]^/(___:<[}     ;>$$$$$$$$, ",
"   .|1_______234    56777777778 ",
"  90___________ab   %.......... ",
" 'cd____________ef              ",
" fg_____________hi              ",
" j_______________k.             ",
"{l________________4             ",
"mn________________o             ",
"~k________________p             ",
"mn________________q             ",
"rs_______________t}             ",
" c_______________u.             ",
" ]v_____________dp              ",
"  wx____________3y              ",
"  zAB_________hC{               ",
"   zAD_______EF)                ",
"    .GHIJvKLM!.                 ",
"       NOPQR'                   "};
